<svg xmlns="http://www.w3.org/2000/svg" width="272.382" height="73.888" viewBox="0 0 272.382 73.888">
  <g id="Our_Logo" data-name="Our Logo" transform="translate(-293.804 -731.297)">
    <path id="Path_533" data-name="Path 533" d="M321.168,731.344c1.283.293,2.579.533,3.844.887a24.482,24.482,0,0,1,11.151,40.621c-.233.245-.424.531-.634.8-.06.122-.124.24-.191.358a23.339,23.339,0,0,1-13.486,6.449c-7.714,1.057-14.427-1.23-20.295-6.226A24.638,24.638,0,0,1,298,770.167a30.755,30.755,0,0,1-3.461-6.962,32.817,32.817,0,0,1-.733-4.755v-5.937a21.8,21.8,0,0,1,3.685-10.161,24.716,24.716,0,0,1,15.1-10.66c1.029-.268,2.121-.1,3.162-.348Z" fill="#244496" fill-rule="evenodd" opacity="0"/>
    <path id="Path_534" data-name="Path 534" d="M335.4,773.713a1.039,1.039,0,0,0,.13-.063c5.433,4.379,7.873,10.048,6.719,16.937-1.089,6.507-4.966,10.991-11.093,13.448a37.714,37.714,0,0,1-4.049,1.141h-4.389a15.365,15.365,0,0,1-8.4-3.136,18.332,18.332,0,0,1-6.481-8.916c-.187-.536-.5-1.128-.065-1.715.606-.237,1.077.156,1.583.354a18.1,18.1,0,0,0,17.59-1.815,17.542,17.542,0,0,0,8.079-14.777A2.034,2.034,0,0,1,335.4,773.713Z" fill="#e82b29" fill-rule="evenodd" opacity="0"/>
    <path id="Path_535" data-name="Path 535" d="M307.777,791.487a19.5,19.5,0,0,1-8.657-9.38,18.064,18.064,0,0,1-.894-12.078,26.325,26.325,0,0,0,8.7,7.512,24.565,24.565,0,0,0,28.048-3.555,3.127,3.127,0,0,1,.427-.273,18.829,18.829,0,0,1-15.2,19.458,19.2,19.2,0,0,1-11.23-1.2C308.569,791.809,308.173,791.649,307.777,791.487Z" fill="#4e9f3b" fill-rule="evenodd" opacity="0"/>
    <g id="Group_412" data-name="Group 412" opacity="0">
      <path id="Path_536" data-name="Path 536" d="M440.178,770.143q0-5.483,0-10.965c0-.52-.033-.96.6-1.236,4.336-1.877,8.805-2.937,13.539-2.1,4.831.85,7.631,4.066,7.726,9.01.1,5.5.018,11.007.049,16.511,0,.7-.223.883-.881.852-1.282-.06-2.914.414-3.75-.208-.8-.594-.225-2.325-.234-3.553-.031-4.428,0-8.857-.017-13.286-.012-3.262-1.176-4.64-4.4-5.067a19.2,19.2,0,0,0-7.146.65c-.861.212-.612.814-.613,1.315-.014,6.278-.038,12.556.018,18.833.01,1.078-.255,1.436-1.335,1.324-1.14-.119-2.672.346-3.342-.238-.7-.61-.193-2.178-.2-3.326C440.16,775.819,440.178,772.981,440.178,770.143Z" fill="#040505" fill-rule="evenodd"/>
      <path id="Path_537" data-name="Path 537" d="M361.741,766.971c0-4.689-.038-9.378.029-14.065.015-1.064-.332-1.249-1.291-1.232-3.138.057-6.28-.014-9.419.044-.934.017-1.343-.176-1.222-1.188.131-1.1-.453-2.546.215-3.226s2.118-.2,3.223-.2c8.044-.017,16.087.006,24.131-.031.885,0,1.244.182,1.127,1.114-.144,1.134.49,2.658-.272,3.315-.651.562-2.125.187-3.236.193-2.366.013-4.736.091-7.1-.032-1.224-.064-1.355.382-1.35,1.432.039,9.291.006,18.582.046,27.873,0,.993-.219,1.379-1.248,1.249-1.177-.149-2.763.508-3.442-.27-.584-.666-.189-2.206-.192-3.36C361.735,774.713,361.741,770.842,361.741,766.971Z" fill="#040505" fill-rule="evenodd"/>
      <path id="Path_538" data-name="Path 538" d="M511.385,777.834v2.429c0,1.866,0,1.866-1.907,2.261-4.279.885-8.341-1.1-9.507-4.661a9.215,9.215,0,0,1-.423-2.92c.011-4.517-.048-9.035.04-13.55.024-1.238-.383-1.577-1.488-1.4a.791.791,0,0,1-.129,0c-3.266,0-3.245,0-3.054-3.313.037-.636.248-.806.839-.784.989.036,1.982-.036,2.968.025.7.043.855-.227.843-.877-.038-2.021.009-4.044-.027-6.065-.012-.642.123-.922.838-.877a27.3,27.3,0,0,0,3.1,0c.68-.035.886.189.872.867-.04,1.978.021,3.958-.031,5.936-.02.77.163,1.05.986,1.018,1.719-.066,3.442.015,5.162-.035.744-.022.927.229.942.951.065,3.153.089,3.152-3.091,3.152-1.032,0-2.065.028-3.1-.01-.618-.023-.908.088-.9.819.034,4.818-.007,9.636.034,14.454.017,1.983.92,2.9,2.88,3.091a9.61,9.61,0,0,0,2.056-.011A18.478,18.478,0,0,0,511.385,777.834Z" fill="#040505" fill-rule="evenodd"/>
      <path id="Path_539" data-name="Path 539" d="M549.677,776.742c0,1.381-.012,2.661.006,3.94.008.464-.184.661-.623.809a18.926,18.926,0,0,1-11.768.567c-3.94-1.187-6.207-4.008-7.2-7.883a20.173,20.173,0,0,1,0-10.083c1.288-5.083,4.969-8.044,10.4-8.443a21.807,21.807,0,0,1,8.255,1.064c.642.2,1.008.465.953,1.247-.082,1.152-.022,2.315-.022,3.637a25.208,25.208,0,0,0-4.945-1.475,15.8,15.8,0,0,0-4.37-.055,5.823,5.823,0,0,0-5.221,4.64,17.55,17.55,0,0,0-.088,8.55c.783,3.318,2.824,4.895,6.25,5.061a16.909,16.909,0,0,0,7.31-1.21C548.92,776.982,549.242,776.891,549.677,776.742Z" fill="#040505" fill-rule="evenodd"/>
      <path id="Path_540" data-name="Path 540" d="M380.07,770.131c0-3.656.009-7.311-.009-10.966,0-.6.062-1.006.75-1.263a36.19,36.19,0,0,1,11.175-2.3c.677-.03,1.024.066.967.869-.08,1.111.368,2.526-.166,3.263s-2.071.3-3.154.5c-1.223.229-2.45.442-3.682.613-.831.115-1.05.5-1.043,1.348.046,6.278,0,12.557.05,18.835.007.963-.217,1.286-1.191,1.185a15.386,15.386,0,0,0-2.706,0c-.783.057-1.022-.176-1.011-.991C380.1,777.528,380.07,773.829,380.07,770.131Z" fill="#040505" fill-rule="evenodd"/>
      <path id="Path_541" data-name="Path 541" d="M426.495,769.034c0-3.994.03-7.989-.022-11.983-.012-.913.246-1.207,1.144-1.119,1.187.116,2.724-.478,3.486.224.779.716.238,2.269.242,3.452.026,7.129,0,14.259.033,21.388.005.911-.139,1.327-1.167,1.226-1.185-.116-2.758.378-3.479-.218-.754-.625-.214-2.25-.226-3.436C426.475,775.39,426.495,772.212,426.495,769.034Z" fill="#040505" fill-rule="evenodd"/>
      <path id="Path_542" data-name="Path 542" d="M517.882,769.02c0-3.951.025-7.9-.019-11.853-.01-.889.1-1.368,1.155-1.239,1.182.143,2.726-.479,3.481.235s.23,2.274.234,3.458c.023,7.13-.007,14.259.033,21.388.006.937-.178,1.308-1.181,1.212-1.186-.114-2.764.373-3.474-.227-.742-.626-.209-2.252-.219-3.439C517.863,775.377,517.882,772.2,517.882,769.02Z" fill="#040505" fill-rule="evenodd"/>
      <path id="Path_543" data-name="Path 543" d="M520.3,752c-2.667,0-2.667,0-2.667-2.659,0-2.5,0-2.5,2.545-2.5,2.813,0,2.813,0,2.813,2.767C522.989,752,522.989,752,520.3,752Z" fill="#e82b29" fill-rule="evenodd"/>
      <path id="Path_544" data-name="Path 544" d="M428.876,752c-2.631,0-2.631,0-2.631-2.567,0-2.6,0-2.6,2.581-2.6,2.777,0,2.777,0,2.777,2.8C431.6,752,431.6,752,428.876,752Z" fill="#e82b29" fill-rule="evenodd"/>
      <path id="Path_545" data-name="Path 545" d="M487.375,771.872c1.411,0,2.822-.057,4.234-.087a16.1,16.1,0,0,0,.2-4.595c-.234-7.5-5.634-12.242-13.093-11.533-5.127.487-8.472,3.273-9.577,8.1a23.2,23.2,0,0,0-.043,10.48c.906,3.941,3.173,6.769,7.15,7.861a21.849,21.849,0,0,0,13.162-.856c.343-.119.639-.223.635-.671-.011-1.256,0-2.512,0-3.891a21.647,21.647,0,0,1-4.339,1.432,25.342,25.342,0,0,1-4.478.467c-4.643.034-6.978-1.938-7.634-6.7h1.273C479.034,771.88,483.2,771.885,487.375,771.872Zm-13.83-5.249c.1-.419.135-.849.208-1.272.569-3.317,2.273-5.077,5.174-5.345,3.833-.355,6.24,1.009,7.417,4.292,1.092,3.046,1.024,3.1-2.109,3.1h-4c-1.978,0-3.957.01-5.934.059C473.58,767.478,473.4,767.276,473.545,766.623Z" fill="#040505" fill-rule="evenodd"/>
      <path id="Path_546" data-name="Path 546" d="M419.793,767.229c-.238-7.475-5.468-12.151-12.932-11.586-5.147.39-8.6,3.212-9.735,8.072a23.27,23.27,0,0,0-.063,10.481,10.134,10.134,0,0,0,9,8.3,23.817,23.817,0,0,0,9.448-.653c2.515-.637,2.505-.677,2.505-3.3,0-.3-.023-.6,0-.9.069-.743-.06-1-.886-.626a19.645,19.645,0,0,1-8.8,1.543c-3.709-.117-6-2.159-6.664-5.771-.131-.715-.059-.948.742-.933,2.707.051,5.417.019,8.125.019,2.752,0,5.5-.023,8.255.016.714.01,1-.185.981-.922C419.743,769.722,419.833,768.473,419.793,767.229Zm-7.624.173h-4c-1.935,0-3.871.013-5.805.057-.724.016-1.044-.124-.84-.9.108-.414.134-.838.209-1.261.582-3.311,2.294-5.049,5.208-5.3,3.8-.329,6.148.992,7.343,4.216C415.433,767.312,415.349,767.4,412.169,767.4Z" fill="#040505" fill-rule="evenodd"/>
    </g>
    <g id="Group_413" data-name="Group 413" opacity="0">
      <path id="Path_547" data-name="Path 547" d="M494.13,794.407a5.193,5.193,0,0,1,.009-.9c.127-.727-.445-1.7.324-2.15A3.783,3.783,0,0,1,497.58,791a3.081,3.081,0,0,0,1.976.023,4.048,4.048,0,0,1,2.537.041,1.957,1.957,0,0,1,1.31,1.895c.049,1.287.022,2.577.021,3.866,0,.285.082.612-.408.617-.454.005-.591-.183-.584-.613.018-1.16,0-2.321.009-3.481.006-.642-.089-1.218-.791-1.456a3.379,3.379,0,0,0-2.392.144c-.326.13-.089.443-.083.68.031,1.329.047,2.658.077,3.987.01.419,0,.766-.584.738s-.394-.46-.4-.748c-.02-1.16-.01-2.32-.008-3.48,0-1.242-.807-1.436-1.814-1.467-1.044-.032-1.438.376-1.348,1.443.093,1.11.032,2.233.014,3.35-.006.381.2.917-.539.9-.688-.017-.416-.524-.432-.839C494.106,795.87,494.13,795.138,494.13,794.407Z" fill="#070807" fill-rule="evenodd"/>
      <path id="Path_548" data-name="Path 548" d="M417.046,795.79c.882-1.6.919-3.4,1.946-4.792.075-.1.406-.013.774-.013-.7,2.049-1.373,4.006-2.022,5.971a.6.6,0,0,1-.64.484c-.456.02-.571-.258-.679-.612-.383-1.257-.782-2.509-1.295-4.144-.5,1.551-.889,2.735-1.262,3.924-.125.4-.124.833-.754.841-.658.008-.624-.509-.747-.861-.634-1.818-1.229-3.65-1.839-5.48.687-.349,1-.066,1.207.6.419,1.341.893,2.663,1.421,4.218.461-1.521.826-2.787,1.237-4.038.117-.354.02-.889.676-.918.735-.032.661.572.791.959C416.277,793.168,416.634,794.432,417.046,795.79Z" fill="#070807" fill-rule="evenodd"/>
      <path id="Path_549" data-name="Path 549" d="M422.062,791.139c.616-.1,1.11-.219,1.609-.256a2.345,2.345,0,0,1,2.805,2.435c.064,1.157.015,2.319.023,3.479,0,.36.028.68-.515.645s-.476-.375-.476-.716c0-1.074-.007-2.148,0-3.221a1.512,1.512,0,0,0-.843-1.6,3,3,0,0,0-2.378.165c-.373.152-.217.608-.22.932-.014,1.246-.006,2.492-.005,3.738,0,.351.032.675-.494.7-.555.026-.5-.316-.5-.661q0-3.736,0-7.474c0-.341-.065-.69.493-.665.522.024.5.342.5.7C422.059,789.933,422.062,790.525,422.062,791.139Z" fill="#080909" fill-rule="evenodd"/>
      <path id="Path_550" data-name="Path 550" d="M360.664,792.967c0-1.16-.018-2.321.012-3.479.008-.314-.255-.821.431-.839.74-.019.508.516.545.9a2.056,2.056,0,0,1,0,.514c-.147.891.1,1.117,1.058.923,2.241-.451,3.343.521,3.378,2.8.015.987.008,1.976,0,2.963,0,.316.117.7-.458.7-.509,0-.536-.284-.532-.664.01-1.031-.006-2.062.006-3.093.008-.717-.059-1.407-.8-1.755a2.987,2.987,0,0,0-2.379.118c-.425.155-.26.588-.264.9-.018,1.246-.013,2.492,0,3.737,0,.41.021.772-.573.75s-.409-.443-.413-.736C360.654,795.458,360.664,794.212,360.664,792.967Z" fill="#080909" fill-rule="evenodd"/>
      <path id="Path_551" data-name="Path 551" d="M355.551,793.428q-.009-.642-.017-1.286c-.03-2.409-.03-2.408-2.377-2.56-.321-.021-.728.1-.753-.437-.026-.572.411-.446.72-.452,1.928-.035,3.857-.054,5.786-.078.34,0,.707-.071.676.48-.026.458-.345.386-.634.417-.8.087-1.927-.356-2.314.236s-.112,1.656-.107,2.511c.01,1.5.037,3,.053,4.5,0,.329.093.69-.469.684-.516-.006-.521-.307-.524-.672C355.583,795.657,355.565,794.543,355.551,793.428Z" fill="#090a0a" fill-rule="evenodd"/>
      <path id="Path_552" data-name="Path 552" d="M473.865,797.432a3.831,3.831,0,0,1-1.631-.309.574.574,0,0,1-.4-.712c.133-.513.458-.191.7-.114a3.327,3.327,0,0,0,2.019.128.874.874,0,0,0,.707-.661.805.805,0,0,0-.519-.933c-.631-.264-1.284-.474-1.932-.694a1.406,1.406,0,0,1-1.063-1.312,1.663,1.663,0,0,1,.969-1.678,3.678,3.678,0,0,1,2.635-.077.562.562,0,0,1,.428.788c-.183.486-.476.022-.72.009-.382-.021-.766-.114-1.145-.1-.532.022-1.076.171-1.18.783-.123.723.543.761.993.953a4.693,4.693,0,0,0,.735.223c1.1.27,1.919.824,1.835,2.1C476.233,796.817,475.27,797.42,473.865,797.432Z" fill="#090a09" fill-rule="evenodd"/>
      <path id="Path_553" data-name="Path 553" d="M538.578,794.636q0-.966,0-1.931c0-.471.089-.994-.674-.908-.353.039-.414-.2-.4-.49s.2-.367.429-.325c.8.146.646-.5.713-.891a1.832,1.832,0,0,1,2.009-1.738c.313,0,.73-.116.723.453-.007.508-.372.363-.637.362a.962.962,0,0,0-1.03.612c-.208.612-.467,1.29.684,1.219.323-.021.985-.35.96.4-.024.72-.66.381-1,.375-.62-.012-.818.189-.8.806.039,1.372.021,2.746,0,4.118,0,.292.184.715-.409.738s-.583-.333-.576-.745C538.586,796.009,538.578,795.322,538.578,794.636Z" fill="#080909" fill-rule="evenodd"/>
      <path id="Path_554" data-name="Path 554" d="M518,797.437a1.67,1.67,0,0,1-1.858-1.725c-.058-.938-.01-1.883-.025-2.824-.008-.518.2-1.2-.747-1.095-.262.029-.365-.144-.372-.393s.07-.447.343-.413c1.053.134.755-.63.773-1.161.013-.374.021-.66.529-.667.566-.008.515.375.457.686-.189,1.023.289,1.271,1.194,1.14.271-.039.621-.1.628.389.006.467-.313.475-.6.419-1.235-.236-1.3.484-1.216,1.4a11,11,0,0,1,0,1.541c-.048,1.056-.088,2.086,1.487,1.765.351-.072.321.192.316.382C518.893,797.557,518.349,797.367,518,797.437Z" fill="#090a09" fill-rule="evenodd"/>
      <path id="Path_555" data-name="Path 555" d="M481.955,794.159c0,1.911.876,2.586,2.925,2.328.346-.043.91-.491,1.06.147.17.721-.577.627-.962.716a3.209,3.209,0,0,1-3.534-1.19,4.24,4.24,0,0,1,.257-4.375,3.792,3.792,0,0,1,3.708-.762c.343.119.675.259.552.705-.131.476-.474.185-.729.145C482.85,791.5,481.951,792.124,481.955,794.159Z" fill="#090a09" fill-rule="evenodd"/>
      <path id="Path_556" data-name="Path 556" d="M395.474,794.117c-.009,1.967.863,2.631,3.01,2.353.315-.041.8-.439.979.122.2.652-.435.627-.8.725a3.316,3.316,0,0,1-3.681-1.12,4.329,4.329,0,0,1,.129-4.281,3.648,3.648,0,0,1,3.775-.9c.334.109.7.218.6.674-.138.6-.539.2-.815.157C396.43,791.475,395.482,792.143,395.474,794.117Z" fill="#090a09" fill-rule="evenodd"/>
      <path id="Path_557" data-name="Path 557" d="M385.444,792.914c0-1.2,0-2.4,0-3.6,0-.332-.077-.689.481-.675.514.013.518.31.517.677q-.006,3.727,0,7.454c0,.368-.007.664-.519.675-.56.013-.479-.346-.48-.677C385.442,795.484,385.444,794.2,385.444,792.914Z" fill="#0c0d0d" fill-rule="evenodd"/>
      <path id="Path_558" data-name="Path 558" d="M530.784,792.914q0-1.8,0-3.6c0-.332-.078-.69.481-.676.513.012.518.309.517.676q-.006,3.728,0,7.454c0,.368-.005.664-.518.676-.559.013-.48-.345-.48-.676Q530.782,794.841,530.784,792.914Z" fill="#0c0d0d" fill-rule="evenodd"/>
      <path id="Path_559" data-name="Path 559" d="M450.251,793.029c0,1.243,0,2.485,0,3.728,0,.32.1.7-.465.689-.5-.005-.534-.279-.533-.661q.009-3.727,0-7.455c0-.357-.016-.669.5-.69.551-.022.5.318.5.662Z" fill="#0c0d0d" fill-rule="evenodd"/>
      <path id="Path_560" data-name="Path 560" d="M434.753,794.4v-1.287a2.149,2.149,0,0,1,2.738-2.254c.25.044.386.128.4.383.019.283-.023.537-.382.508-1.982-.16-1.829,1.176-1.772,2.48.036.814,0,1.632.008,2.447,0,.4.046.778-.56.764-.584-.014-.423-.421-.429-.722C434.742,795.948,434.753,795.175,434.753,794.4Z" fill="#0a0b0b" fill-rule="evenodd"/>
      <path id="Path_561" data-name="Path 561" d="M534.691,794.162c0-.856-.006-1.712,0-2.568,0-.325-.1-.718.441-.747.5-.028.535.282.534.66q-.009,2.633,0,5.264c0,.359.017.692-.509.676s-.464-.385-.466-.717C534.687,795.875,534.691,795.018,534.691,794.162Z" fill="#141414" fill-rule="evenodd"/>
      <path id="Path_562" data-name="Path 562" d="M535.686,789.071c.03.373.009.649-.432.618-.286-.021-.6.055-.6-.411,0-.364,0-.666.509-.631C535.495,788.67,535.773,788.681,535.686,789.071Z" fill="#040505" fill-rule="evenodd"/>
      <path id="Path_563" data-name="Path 563" d="M457.47,789.364c0-.3.155-.706-.43-.719-.612-.015-.561.371-.555.765a5.679,5.679,0,0,0,.007.772c.116.75-.163.879-.9.811-3.077-.284-4.675,2.073-3.381,4.912a2.908,2.908,0,0,0,3.379,1.459c1.356-.276,1.871-.946,1.883-2.465.007-.815,0-1.63,0-2.445C457.475,791.424,457.485,790.394,457.47,789.364ZM456.487,794c0,.3-.023.6,0,.9.082.879-.136,1.528-1.145,1.651s-1.877.017-2.312-1.1c-.819-2.108.161-3.821,2.134-3.7.86.053,1.525.255,1.327,1.351A5.1,5.1,0,0,0,456.487,794Z" fill="#080909" fill-rule="evenodd"/>
      <path id="Path_564" data-name="Path 564" d="M383.6,792.7a2.647,2.647,0,0,0-2.944-1.76c-1.16.071-2.241.463-2.323,1.753-.137,2.174-.053,4.363-.074,6.546,0,.388.161.514.535.527.447.015.465-.243.461-.568-.007-.637,0-1.274,0-1.922C382.993,797.726,384.685,795.9,383.6,792.7Zm-2.365,3.874c-1.462.255-2.049-.2-2.049-1.666v-1.031c0-1.724.273-2.063,1.527-2.12,1.348-.062,2.055.643,2.133,2.163,0,.086-.008.172-.008.258C382.852,795.7,382.4,796.37,381.237,796.572Z" fill="#090a09" fill-rule="evenodd"/>
      <path id="Path_565" data-name="Path 565" d="M372.8,793.019a2.633,2.633,0,0,0-2.659-2.16,2.521,2.521,0,0,0-2.714,1.723c-.395,1.391-.571,2.851.533,4.005,1.124,1.175,2.576.9,3.987.6.472-.1.715-.351.571-.8-.17-.529-.482-.043-.718-.021a7.06,7.06,0,0,1-2.168.077,1.5,1.5,0,0,1-1.429-1.618h3.236C373.176,794.83,373.249,794.742,372.8,793.019Zm-2.184,1.005a2.651,2.651,0,0,1-.643.009,2.2,2.2,0,0,1-.514-.007c-.421-.1-1.1.306-1.233-.254A1.583,1.583,0,0,1,369,792a1.909,1.909,0,0,1,2.185.111,1.635,1.635,0,0,1,.734,1.565C371.776,794.379,371.063,793.908,370.615,794.024Z" fill="#080909" fill-rule="evenodd"/>
      <path id="Path_566" data-name="Path 566" d="M403.6,790.918a2.621,2.621,0,0,0-3.294,2.378c-.223,1.267-.217,2.542.842,3.446,1.17,1,2.563.734,3.925.429a.554.554,0,0,0,.492-.742c-.142-.565-.461-.09-.689-.073-.469.035-.934.168-1.4.16-1.07-.019-2.07-.287-2.252-1.686h1.927c.686,0,1.372.014,2.057.009.379,0,.771.076.844-.508A3.137,3.137,0,0,0,403.6,790.918Zm1.359,2.765c-.13.692-.859.227-1.308.341a2.693,2.693,0,0,1-.642.009,2.2,2.2,0,0,1-.514-.007c-.421-.1-1.1.307-1.231-.258a1.586,1.586,0,0,1,.783-1.767,1.917,1.917,0,0,1,2.079.044A1.657,1.657,0,0,1,404.963,793.683Z" fill="#080909" fill-rule="evenodd"/>
      <path id="Path_567" data-name="Path 567" d="M431.849,791.177a3.064,3.064,0,0,0-3.71.771,4.514,4.514,0,0,0,.076,4.514c.79.962,3.005,1.294,4.328.689a.57.57,0,0,0,.395-.7c-.114-.59-.448-.146-.667-.109a4.261,4.261,0,0,1-3-.18,1.126,1.126,0,0,1-.632-1.048c.081-.516.624-.213.958-.254a10.373,10.373,0,0,1,1.284-.013h1.8c.3,0,.6.018.727-.36A3.694,3.694,0,0,0,431.849,791.177Zm.051,2.853c-.472-.005-.945,0-1.418,0a2.644,2.644,0,0,1-.642-.007c-.416-.1-1.083.324-1.217-.278a1.607,1.607,0,0,1,.7-1.693,1.949,1.949,0,0,1,1.966-.122,2,2,0,0,1,1.054,1.528C432.436,793.831,432.306,794.035,431.9,794.03Z" fill="#080909" fill-rule="evenodd"/>
      <path id="Path_568" data-name="Path 568" d="M442.685,794.852c1.742,0,1.813-.095,1.365-1.818a2.637,2.637,0,0,0-2.656-2.17,2.519,2.519,0,0,0-2.716,1.717c-.4,1.39-.573,2.849.529,4,1.123,1.177,2.574.9,3.986.608.47-.1.718-.345.575-.8-.167-.533-.48-.048-.715-.026a7.023,7.023,0,0,1-2.167.089,1.543,1.543,0,0,1-1.427-1.521,1.205,1.205,0,0,1,.268-.078C440.713,794.854,441.7,794.853,442.685,794.852Zm-3.224-1.178a1.579,1.579,0,0,1,.883-1.722,1.9,1.9,0,0,1,2.171.231,1.577,1.577,0,0,1,.64,1.591c-.175.539-.83.168-1.263.252a3.448,3.448,0,0,1-.643.007,1.624,1.624,0,0,1-.513-.009C440.307,793.872,439.573,794.424,439.461,793.674Z" fill="#080909" fill-rule="evenodd"/>
      <path id="Path_569" data-name="Path 569" d="M463.086,791.177a3.064,3.064,0,0,0-3.71.771,4.512,4.512,0,0,0,.075,4.514c.79.962,3.005,1.3,4.328.69a.57.57,0,0,0,.4-.7c-.112-.59-.447-.146-.666-.109a4.267,4.267,0,0,1-3-.18,1.129,1.129,0,0,1-.633-1.048c.082-.517.625-.213.959-.254a10.371,10.371,0,0,1,1.284-.013h1.8c.3,0,.6.019.727-.36A3.691,3.691,0,0,0,463.086,791.177Zm.465,2.565c-.146.587-.89.192-1.359.285a2.591,2.591,0,0,1-.514.006,4.067,4.067,0,0,1-.644-.006c-.4-.064-.995.254-1.153-.2a1.545,1.545,0,0,1,.518-1.634,1.853,1.853,0,0,1,2.276-.177A1.614,1.614,0,0,1,463.551,793.742Z" fill="#080909" fill-rule="evenodd"/>
      <path id="Path_570" data-name="Path 570" d="M508.335,790.95a2.658,2.658,0,0,0-3.452,2.166c-.675,3.155,1.119,4.882,4.315,4.142.428-.1,1.1-.07.91-.77s-.693-.1-1-.05c-2.033.312-2.815,0-3.347-1.586,1.382,0,2.666.006,3.951,0,.362,0,.784.119.891-.459A3.262,3.262,0,0,0,508.335,790.95Zm1.161,2.829c-.16.533-.83.164-1.264.247a3.448,3.448,0,0,1-.643.007,1.559,1.559,0,0,1-.512-.009c-.427-.158-1.162.41-1.271-.354a1.587,1.587,0,0,1,.888-1.721,1.91,1.91,0,0,1,2.074.155A1.607,1.607,0,0,1,509.5,793.779Z" fill="#080909" fill-rule="evenodd"/>
      <path id="Path_571" data-name="Path 571" d="M548.087,793.03a2.609,2.609,0,0,0-2.649-2.166,2.482,2.482,0,0,0-2.718,1.708c-.419,1.382-.58,2.849.517,4.006,1.121,1.182,2.572.907,3.984.616.466-.1.722-.332.585-.791-.162-.54-.477-.059-.709-.036a7.093,7.093,0,0,1-2.168.083,1.511,1.511,0,0,1-1.439-1.62h3.223C548.465,794.83,548.531,794.753,548.087,793.03Zm-2.826,1a1.457,1.457,0,0,1-.512-.009c-.419-.164-1.16.422-1.254-.371a1.633,1.633,0,0,1,.9-1.717,1.94,1.94,0,0,1,2.794,1.369c.1.472.059.755-.514.732C546.207,794.017,545.733,794.032,545.261,794.032Z" fill="#080909" fill-rule="evenodd"/>
      <path id="Path_572" data-name="Path 572" d="M467.09,790.952c-.4.068-1,.018-.927.631.093.8.656.223.992.213.9-.027,1.821-.233,2.506.6a.774.774,0,0,1,.2.717c-.11.359-.433.181-.653.178a6.083,6.083,0,0,0-2.525.392,1.781,1.781,0,0,0-1.193,1.808,1.816,1.816,0,0,0,1.231,1.656c2.361,1.014,4.182-.179,4.183-2.742C470.9,791.473,469.817,790.488,467.09,790.952Zm1.153,5.637c-.805,0-1.837-.069-1.745-1.213.112-1.413,1.409-1.058,2.284-1.268.848-.127,1.16.164,1.159,1.052C469.939,796.4,469.137,796.591,468.243,796.589Z" fill="#080909" fill-rule="evenodd"/>
      <path id="Path_573" data-name="Path 573" d="M389.391,790.951c-.4.068-1,.016-.931.628.086.807.653.227.987.217.9-.027,1.821-.234,2.507.6a.78.78,0,0,1,.2.717c-.106.364-.43.183-.65.181a5.869,5.869,0,0,0-2.641.447,1.759,1.759,0,0,0-1.081,1.749,1.794,1.794,0,0,0,1.11,1.608c2.307,1.13,4.3-.117,4.3-2.686C393.2,791.474,392.117,790.49,389.391,790.951Zm1.105,5.639c-.809-.013-1.836-.108-1.7-1.256.161-1.387,1.448-1.022,2.331-1.228.754-.091,1.094.111,1.113.967C392.267,796.377,391.458,796.606,390.5,796.59Z" fill="#080909" fill-rule="evenodd"/>
      <path id="Path_574" data-name="Path 574" d="M489.632,790.929c-2.05-.011-3.163,1.1-3.2,3.188a3.184,3.184,0,1,0,6.364.043A2.9,2.9,0,0,0,489.632,790.929Zm.011,5.679c-1.519.015-2.233-.779-2.222-2.471.01-1.637.677-2.371,2.163-2.383,1.547-.013,2.231.742,2.223,2.451C491.8,795.818,491.1,796.593,489.643,796.608Z" fill="#080909" fill-rule="evenodd"/>
      <path id="Path_575" data-name="Path 575" d="M522.333,790.929c-2.025.021-3.133,1.184-3.116,3.271a2.934,2.934,0,0,0,3.177,3.234,2.97,2.97,0,0,0,3.187-3.357A2.894,2.894,0,0,0,522.333,790.929Zm.046,5.679c-1.47-.011-2.162-.773-2.172-2.393-.012-1.712.669-2.47,2.213-2.461,1.493.008,2.159.735,2.173,2.373C524.606,795.813,523.888,796.619,522.379,796.608Z" fill="#080909" fill-rule="evenodd"/>
    </g>
    <circle id="Ellipse_88" data-name="Ellipse 88" cx="17.632" cy="17.632" r="17.632" transform="translate(307.259 769.92)" fill="#e82b29"/>
    <circle id="Ellipse_89" data-name="Ellipse 89" cx="18.892" cy="18.892" r="18.892" transform="translate(297.743 755.647)" fill="#4e9f3b"/>
    <circle id="Ellipse_90" data-name="Ellipse 90" cx="24.349" cy="24.349" r="24.349" transform="translate(293.825 731.297)" fill="#244496"/>
    <g id="Group_414" data-name="Group 414">
      <path id="Path_576" data-name="Path 576" d="M378.508,751.268H366.489V782.11H361.6V751.268H349.632v-4.627h28.876Z" fill="#1a1818"/>
      <path id="Path_577" data-name="Path 577" d="M384.783,782.11H379.89v-24.3a33.75,33.75,0,0,1,12.922-2.659v4.467a35.094,35.094,0,0,0-8.029,1.117Z" fill="#1a1818"/>
      <path id="Path_578" data-name="Path 578" d="M418.018,776.421v4.413a23.952,23.952,0,0,1-9.412,1.755c-5.584,0-12.231-2.34-12.231-13.4,0-3.456,0-14.039,11.752-14.039,7.126,0,11.7,5.052,11.7,12.816q0,1.915-.16,3.669H401.373c.745,5.531,3.989,6.754,7.5,6.754A19.481,19.481,0,0,0,418.018,776.421Zm-16.7-9.2h13.614c-.266-3.085-1.542-7.711-6.807-7.711C403.66,759.51,401.746,761.531,401.32,767.221Z" fill="#1a1818"/>
      <rect id="Rectangle_53" data-name="Rectangle 53" width="5.212" height="5.158" rx="0.6" transform="translate(426.207 746.322)" fill="#e82b29"/>
      <rect id="Rectangle_54" data-name="Rectangle 54" width="4.892" height="26.536" transform="translate(426.366 755.575)" fill="#1a1818"/>
      <path id="Path_579" data-name="Path 579" d="M439.767,782.11V757.861a25.884,25.884,0,0,1,11.327-2.765c6.7,0,10.688,3.723,10.688,9.891V782.11H456.89V764.668c0-2.5-.691-5.052-6.009-5.052a20.7,20.7,0,0,0-6.222.957V782.11Z" fill="#1a1818"/>
      <path id="Path_580" data-name="Path 580" d="M489.913,776.421v4.413a23.957,23.957,0,0,1-9.413,1.755c-5.583,0-12.231-2.34-12.231-13.4,0-3.456,0-14.039,11.753-14.039,7.125,0,11.7,5.052,11.7,12.816q0,1.915-.16,3.669H473.268c.745,5.531,3.989,6.754,7.5,6.754A19.484,19.484,0,0,0,489.913,776.421Zm-16.7-9.2h13.614c-.266-3.085-1.543-7.711-6.807-7.711C475.555,759.51,473.64,761.531,473.215,767.221Z" fill="#1a1818"/>
      <path id="Path_581" data-name="Path 581" d="M504.058,759.669v15.422c0,2.287,1.489,3.138,3.988,3.138a5.8,5.8,0,0,0,3.084-.8v4.361a9.935,9.935,0,0,1-3.775.744c-1.7,0-8.136-.585-8.136-7.764v-15.1h-4.627v-4.094h4.627v-7.924h4.839v7.924h7.072v4.094Z" fill="#1a1818"/>
      <rect id="Rectangle_55" data-name="Rectangle 55" width="5.212" height="5.158" rx="0.601" transform="translate(517.406 746.322)" fill="#e82b29"/>
      <rect id="Rectangle_56" data-name="Rectangle 56" width="4.892" height="26.536" transform="translate(517.565 755.575)" fill="#1a1818"/>
      <path id="Path_582" data-name="Path 582" d="M549.578,776.421v4.626a21.321,21.321,0,0,1-7.817,1.489c-8.083,0-12.5-4.892-12.5-13.72s4.414-13.667,12.5-13.667a21.321,21.321,0,0,1,7.817,1.489v4.627a17.214,17.214,0,0,0-7.392-1.755c-4.041,0-7.817,1.17-7.817,9.306,0,8.189,3.776,9.306,7.817,9.306A17.2,17.2,0,0,0,549.578,776.421Z" fill="#1a1818"/>
    </g>
    <text id="The_place_where_ideas_come_to_life" data-name="The place where ideas come to life" transform="translate(353.186 797.274)" fill="#1a1818" font-size="12.595" font-family="SegoeUI, Segoe UI" letter-spacing="0.05em"><tspan x="0" y="0">The place where ideas come to life</tspan></text>
  </g>
</svg>
